<?xml version="1.0" encoding="UTF-8"?>
<!-- Generator: Adobe Illustrator 21.1.0, SVG Export Plug-In . SVG Version: 6.00 Build 0)  -->
<svg version="1.1" id="Layer_1" xmlns="http://www.w3.org/2000/svg" xmlns:xlink="http://www.w3.org/1999/xlink" x="0px" y="0px" viewBox="0 0 1773.2 1557.2" style="enable-background:new 0 0 1773.2 1557.2;" xml:space="preserve">
<style type="text/css">
	.st0{fill:#EBF4FD;}
	.st1{fill:#FFFFFF;}
	.st2{fill:#A0A0A0;}
	.st3{fill:#F22F2F;}
	.st4{fill:#AFE4FC;}
	.st5{fill:#62AF69;}
	.st6{fill:#0D3B6D;}
</style>
<g>
	<path class="st0" d="M1684.7,899c20,461.9-479.9,686.9-882.5,589.1c-43.4,6-87.2,7.1-130.7,3.8C367.1,1468.7,80,1228.1,80,911   c0-100,25-200,62.5-287.4c25-50,62.5-100,100-150c65.6-65.6,145.3-110.1,230.2-148.4c28.3-12.8,56.4-25.3,81.5-39.8   C842.4-51.3,1429.8-26.3,1604.7,398.6c50,125,50,262.4,69.4,389.7C1680.4,824.2,1684,861.3,1684.7,899z"/>
</g>
<g>
	
		<rect x="295.9" y="354.3" transform="matrix(0.7071 0.7071 -0.7071 0.7071 377.8649 -122.2673)" class="st1" width="81.3" height="81.3"/>
	<path class="st2" d="M336.5,457.2L274.3,395l62.2-62.2l62.2,62.2L336.5,457.2z M283.7,395l52.8,52.8l52.8-52.8l-52.8-52.8   L283.7,395z"/>
</g>
<g>
	
		<rect x="1487.4" y="819" transform="matrix(0.7071 0.7071 -0.7071 0.7071 1050.1007 -826.485)" class="st1" width="70.7" height="70.7"/>
	<path class="st3" d="M1522.7,909l-54.7-54.7l54.7-54.7l54.7,54.7L1522.7,909z M1477.5,854.3l45.2,45.2l45.2-45.2l-45.2-45.2   L1477.5,854.3z"/>
</g>
<g>
	<polygon class="st1" points="267.5,933.8 214.9,1025.6 152.8,939.9  "/>
	<path class="st2" d="M215.2,1031.7l-68.8-94.8l127-6.8L215.2,1031.7z M159.1,942.9l55.5,76.5l47-82L159.1,942.9z"/>
</g>
<g>
	<path class="st3" d="M1187.7,54.7v27.5h26.4v11.7h-26.4v27.9h-12.4V93.9H1149V82.2h26.4V54.7H1187.7z"/>
</g>
<g>
	<path class="st2" d="M1629.3,1058.5v27.5h26.4v11.7h-26.4v27.9h-12.4v-27.9h-26.4V1086h26.4v-27.5H1629.3z"/>
</g>
<g>
	<g>
		<path class="st4" d="M920.7,407.8c0,0-411-60.2-493.8,422.3c0,0-6.5,433.4,478.3,473.3c0,0,359-34.2,398.9-277.8    c39.9-243.6,14.1-301.9-178.5-360.1c0,0,235.7-151.3,216.3-219.8s0,0,0,0s-144.6-19.4-459.2,179.9l34.3-40l-32-33.6l20.2-60.9    l30.8-55.6L920.7,407.8z"/>
	</g>
	<g>
		<g>
			<g>
				<circle class="st5" cx="1033.5" cy="811.7" r="18.4"/>
			</g>
		</g>
	</g>
	<g>
		<g>
			<g>
				<path class="st5" d="M1036.7,890.6c-10.1-1.5-19.4,5.5-20.9,15.5c-5,34-33.8,62.2-76.8,75.4c-46,14.1-110,9.4-149-33.1      c-6.9-7.5-18.5-8-26-1.1c-7.5,6.9-8,18.5-1.1,26c22.6,24.6,53.2,41.3,88.7,48.4c12.5,2.5,25.5,3.8,38.5,3.8      c20.2,0,40.6-3,59.7-8.8c57-17.5,95.3-56.8,102.5-105.2C1053.7,901.4,1046.7,892.1,1036.7,890.6z"/>
			</g>
		</g>
	</g>
	<g>
		<g>
			<g>
				<path class="st1" d="M738.9,491c-40.6,0-73.7,33-73.7,73.7c0,40.6,33,73.7,73.7,73.7c40.6,0,73.7-33,73.7-73.7      C812.6,524,779.5,491,738.9,491z"/>
				<path class="st6" d="M738.9,648.3c-46.1,0-83.7-37.5-83.7-83.7s37.5-83.7,83.7-83.7c46.1,0,83.7,37.5,83.7,83.7      S785.1,648.3,738.9,648.3z M738.9,501c-35.1,0-63.6,28.5-63.6,63.6c0,35.1,28.5,63.6,63.6,63.6c35.1,0,63.6-28.5,63.6-63.6      C802.5,529.6,774,501,738.9,501z"/>
			</g>
		</g>
	</g>
	<g>
		<g>
			<g>
				<path class="st1" d="M646.8,985.8c-40.6,0-73.7,33-73.7,73.7c0,40.6,33,73.7,73.7,73.7c40.6,0,73.7-33,73.7-73.7      C720.5,1018.8,687.5,985.8,646.8,985.8z"/>
				<path class="st6" d="M646.8,1143.1c-46.1,0-83.7-37.5-83.7-83.7c0-46.1,37.5-83.7,83.7-83.7s83.7,37.5,83.7,83.7      C730.5,1105.6,693,1143.1,646.8,1143.1z M646.8,995.8c-35.1,0-63.6,28.5-63.6,63.6c0,35.1,28.5,63.6,63.6,63.6      c35.1,0,63.6-28.5,63.6-63.6C710.5,1024.4,681.9,995.8,646.8,995.8z"/>
			</g>
		</g>
	</g>
	<g>
		<g>
			<g>
				<path class="st1" d="M831,1096.3c-40.6,0-73.7,33-73.7,73.7c0,40.6,33,73.7,73.7,73.7c40.6,0,73.7-33,73.7-73.7      C904.6,1129.3,871.6,1096.3,831,1096.3z"/>
				<path class="st6" d="M831,1253.6c-46.1,0-83.7-37.5-83.7-83.7c0-46.1,37.5-83.7,83.7-83.7s83.7,37.5,83.7,83.7      C914.7,1216.1,877.1,1253.6,831,1253.6z M831,1106.3c-35.1,0-63.6,28.5-63.6,63.6c0,35.1,28.5,63.6,63.6,63.6      c35.1,0,63.6-28.5,63.6-63.6C894.6,1134.8,866.1,1106.3,831,1106.3z"/>
			</g>
		</g>
	</g>
	<g>
		<g>
			<g>
				<path class="st1" d="M1051.9,1059.4c-40.6,0-73.7,33-73.7,73.7s33,73.7,73.7,73.7c40.6,0,73.7-33,73.7-73.7      S1092.5,1059.4,1051.9,1059.4z"/>
				<path class="st6" d="M1051.9,1216.8c-46.2,0-83.7-37.5-83.7-83.7c0-46.2,37.5-83.7,83.7-83.7c46.2,0,83.7,37.5,83.7,83.7      C1135.6,1179.2,1098.1,1216.8,1051.9,1216.8z M1051.9,1069.5c-35.1,0-63.6,28.5-63.6,63.6s28.5,63.6,63.6,63.6      s63.6-28.5,63.6-63.6S1087,1069.5,1051.9,1069.5z"/>
			</g>
		</g>
	</g>
	<g>
		<g>
			<g>
				<path class="st1" d="M1199.2,875.3c-40.6,0-73.7,33-73.7,73.7c0,40.6,33,73.7,73.7,73.7c40.6,0,73.7-33,73.7-73.7      C1272.9,908.3,1239.9,875.3,1199.2,875.3z"/>
				<path class="st6" d="M1199.2,1032.6c-46.2,0-83.7-37.5-83.7-83.7c0-46.1,37.5-83.7,83.7-83.7c46.1,0,83.7,37.5,83.7,83.7      C1282.9,995.1,1245.4,1032.6,1199.2,1032.6z M1199.2,885.3c-35.1,0-63.6,28.5-63.6,63.6c0,35.1,28.5,63.6,63.6,63.6      c35.1,0,63.6-28.5,63.6-63.6C1262.9,913.9,1234.3,885.3,1199.2,885.3z"/>
			</g>
		</g>
	</g>
	<g>
		<path class="st1" d="M547.2,892.1c0,0,74.6-166.9,173.3-137.2c0,0,394.7-345.4,596-294.4c0,0-77.6,197-558.5,362.2    c0,0,36.8,93.6-210.4,80.7"/>
	</g>
	<g>
		<path class="st6" d="M877.4,383.5c-111.6,0-219.9,43.7-305.9,123.1c-86.1,79.5-138.8,184.7-148.4,296.2    c-11.6,134.4,31.4,262.2,121,359.8c88,95.9,212.7,150.9,342.2,150.9c69.8,0,135.3-12.8,194.7-37.9c54.2-23,102.4-55.8,143.2-97.6    c37.8-38.7,67.6-83.3,88.5-132.4c19.9-46.7,30.8-96.2,31.5-143.1c1-67.8-18.5-126.8-56.3-170.6c-32.6-37.8-76.9-62-131.6-71.9    l-15.3-2.8l12.9-8.7c53.3-36,98.6-71.3,131.1-102.2c46.8-44.6,63.7-76.5,51.6-97.4c-13.6-23.5-57.4-22.4-133.8,3.4    c-67.9,23-152.6,62.9-238.5,112.5c-14.8,8.6-29.5,17.3-43.9,26.2l-6.7,4.1l-2.6-7.4c-11.5-32.5-3.9-69.3,21-100.8    c16.2-20.5,19.8-46.4,9.6-67.6C930.7,396.9,906.8,383.5,877.4,383.5z M915.7,622.2c19.5-12.3,39.9-24.6,60.5-36.5    c80-46.2,159.8-84.3,224.5-107.2c65-23,100.3-25.4,111.6-20l4.2,2l-0.6,4.6c-0.9,6.8-8.1,27.3-54.4,70    c-39.1,36-96.2,78.4-160.7,119.2c-20.3,12.8-41.4,25.6-63,38.1c-29.2,16.9-58.9,32.9-88,47.6l-6.5,3.3l-2.4-6.9    c-5.7-16.5-12.9-32.5-21.6-47.6c-8.4-14.6-18.3-28.5-29.4-41.4l-4.7-5.5l6.1-4C899.3,632.6,907.4,627.4,915.7,622.2z M743.7,760.6    l-4.9-4.6l4.8-4.7c28.9-27.9,69.2-59.9,116.7-92.7l4.6-3.2l3.7,4.2c11.3,12.6,21.3,26.4,29.8,41.1c8.7,15.1,15.9,31.2,21.2,47.8    l1.7,5.3l-5,2.4C864.1,781,816.1,800,777.5,811l-6.6,1.9l-1.4-6.7c-1.9-8.9-5.1-17.5-9.7-25.4    C755.6,773.3,750.1,766.6,743.7,760.6z M747.1,827.5L747.1,827.5c-1.3,20.6-12.8,39.1-30.7,49.5c-15.6,9-57.2,10.9-89.7,10.9    c-18.3,0-33.8-0.6-40.1-0.9l-9.9-0.4l4.6-8.8c8-15.5,49.2-93.3,73.6-107.4c18.3-10.6,40.5-11,59.4-1.2    c10.3,5.4,18.9,13.6,24.8,23.8C745.1,803.4,747.9,815.4,747.1,827.5z M913,471.9c-31.7,40.2-39.9,89.2-21.9,131l2.1,4.9l-4.5,2.9    c-9.8,6.3-19.5,12.7-28.8,19c-57.8,39-107.5,78.5-140.1,111.2l-2.8,2.8l-3.8-1.3c-23.4-8-49-5.5-70.4,6.9    c-28.4,16.4-69.3,87.1-95.6,142.7c-1.7,3.6-1.5,7.8,0.5,11.2c2,3.4,5.5,5.7,9.5,6c8.3,0.7,38,2.9,70.7,2.9    c49.6,0,84.4-5,100.7-14.3c20.9-12.1,35.8-32.5,40.9-56.1l0.8-3.8l3.8-1c44.7-11.7,104-35.1,166.9-65.7    c35.6-17.3,72.3-36.9,109-58.1c18.2-10.5,36.6-21.6,54.9-33l1.5-1h1.8c158.6,4.6,213.3,118.1,211.8,222.9    c-2.7,186.2-169.3,387.3-433.7,387.3c-122.8,0-241-52.1-324.4-143.1c-84.9-92.6-125.7-213.8-114.7-341.4    C466,585.8,658.6,407.6,876.6,407.6c21,0,36.4,8.1,43.2,22.1C926.1,442.8,923.5,458.5,913,471.9z"/>
	</g>
</g>
</svg>