<?xml version="1.0" encoding="UTF-8"?>
<!-- Generator: Adobe Illustrator 21.1.0, SVG Export Plug-In . SVG Version: 6.00 Build 0)  -->
<svg version="1.1" id="Layer_1" xmlns="http://www.w3.org/2000/svg" xmlns:xlink="http://www.w3.org/1999/xlink" x="0px" y="0px" viewBox="0 0 1773.2 1557.2" style="enable-background:new 0 0 1773.2 1557.2;" xml:space="preserve">
<style type="text/css">
	.st0{fill:#EBF4FD;}
	.st1{fill:#FFFFFF;}
	.st2{fill:#A0A0A0;}
	.st3{fill:#F22F2F;}
	.st4{fill:#AFE4FC;}
	.st5{fill:#0D3B6D;}
	.st6{fill:#62AF69;}
</style>
<g>
	<path class="st0" d="M214,295.5C353.3,99.9,581.7,56.2,776.2,61.4c32.1-10.2,65.1-18.6,98.6-24.1c133.9-21.7,274.5,4.7,389.7,75.9   c35.3,3.8,69.7,12.2,102.6,24.7c230.7,87.3,391.9,373.3,309.9,668.6c-25.8,93.1-71.1,180.8-122.9,254.2   c-32.4,41.2-74.4,79.6-116.5,118.1c-34,23.5-69.4,41.3-105.7,55.4c-272.3,486.8-733.3,247.1-1018.4,8.1   c-86.7-65.4-160.3-141.8-205.4-253c-36.7-96.9-41.4-189-43.6-293.8c1.3-65.1,13.3-128.5,35.9-190.3c20.3-49.1,38.2-85.6,61.2-130.4   C177.9,346.9,195.5,320.6,214,295.5z"/>
</g>
<g>
	
		<rect x="1263.9" y="1179.3" transform="matrix(-0.7071 -0.7071 0.7071 -0.7071 1363.0898 3001.8357)" class="st1" width="78.6" height="78.6"/>
	<path class="st2" d="M1303.2,1278.8l-60.2-60.2l60.2-60.2l60.2,60.2L1303.2,1278.8z M1252.2,1218.6l51,51l51-51l-51-51   L1252.2,1218.6z"/>
</g>
<g>
	
		<rect x="179.4" y="504.8" transform="matrix(-0.7071 -0.7071 0.7071 -0.7071 -16.5183 1071.0004)" class="st1" width="68.3" height="68.3"/>
	<path class="st3" d="M213.6,591.8l-52.9-52.9l52.9-52.9l52.9,52.9L213.6,591.8z M169.8,538.9l43.7,43.7l43.7-43.7l-43.7-43.7   L169.8,538.9z"/>
</g>
<g>
	<polygon class="st1" points="1426.7,462.2 1477.5,373.4 1537.6,456.2  "/>
	<path class="st2" d="M1420.9,465.7l56.3-98.2l66.4,91.7L1420.9,465.7z M1477.9,379.4l-45.4,79.2l99-5.3L1477.9,379.4z"/>
</g>
<g>
	<path class="st3" d="M352.9,1283.5v-26.6h-25.5v-11.3h25.5v-27h11.9v27h25.5v11.3h-25.5v26.6H352.9z"/>
</g>
<g>
	<path class="st2" d="M1580.5,688.1v-26.6H1555v-11.3h25.5v-27h11.9v27h25.5v11.3h-25.5v26.6H1580.5z"/>
</g>
<g>
	<circle class="st4" cx="893.2" cy="810.6" r="291.8"/>
</g>
<g>
	<g>
		<path class="st5" d="M1169.5,521.2c-69-69.1-160.4-110.6-257.3-116.8l-12.1-0.8v-63.9h52.5c7.8,0,14.1-6.3,14.1-14.1    c0-7.7-6.3-14.1-14.1-14.1H819.5c-7.8,0-14.1,6.3-14.1,14.1c0,7.7,6.3,14.1,14.1,14.1H872v63.9l-12.1,0.8    c-66,4.2-130.3,24.9-185.9,59.8l-8.7,5.5l-32.9-33c-10-10.1-23.4-15.6-37.6-15.6c-14.2,0-27.6,5.5-37.6,15.6l-39,39.1    c-20.6,20.7-20.6,54.3,0,75l33.1,33.1l-5.5,8.7c-39.6,63.4-60.6,136.9-60.6,212.6c0,107.3,41.7,208.2,117.4,284    C678.3,1165.2,778.9,1207,886,1207s207.8-41.8,283.5-117.7c75.7-75.9,117.4-176.7,117.4-284S1245.2,597.1,1169.5,521.2z     M538,530.9c-9.7-9.7-9.7-25.6,0-35.3l39-39.1c9.4-9.5,25.9-9.5,35.4,0l29.6,29.6l-10.9,9c-9.9,8.2-19.5,17-28.5,26    c-9,9-17.7,18.6-25.8,28.5l-9.1,11L538,530.9z M886,1178.8c-205.5,0-372.8-167.6-372.8-373.6S680.5,431.7,886,431.7    s372.8,167.6,372.8,373.6S1091.6,1178.8,886,1178.8z"/>
	</g>
	<g>
		<path class="st5" d="M886,508.1c-163.5,0-296.5,133.3-296.5,297.1s133,297.1,296.5,297.1s296.5-133.3,296.5-297.1    S1049.5,508.1,886,508.1z M1153,833.6c-13.2,125.4-113.5,226-238.6,239.2l-14.3,1.5v-45.9c0-7.7-6.3-14.1-14.1-14.1    c-7.8,0-14.1,6.3-14.1,14.1v45.9l-14.3-1.5c-125.1-13.2-225.4-113.8-238.6-239.2l-1.5-14.3h45.3c7.8,0,14.1-6.3,14.1-14.1    c0-7.7-6.3-14.1-14.1-14.1h-45.3l1.5-14.3c13.1-125.4,113.5-226,238.6-239.2l14.3-1.5v45.9c0,7.7,6.3,14.1,14.1,14.1    c7.8,0,14.1-6.3,14.1-14.1v-45.9l14.3,1.5c125.1,13.2,225.4,113.8,238.6,239.2l1.5,14.3h-45.3c-7.8,0-14.1,6.3-14.1,14.1    c0,7.7,6.3,14.1,14.1,14.1h45.3L1153,833.6z"/>
	</g>
	<g>
		<path class="st5" d="M873.5,680.5v136.1c0,7.7,6.3,14.1,14.1,14.1h65.1c7.8,0,14.1-6.3,14.1-14.1c0-7.8-6.3-14.1-14.1-14.1h-51    V680.5c0-7.7-6.3-14.1-14.1-14.1S873.5,672.8,873.5,680.5z"/>
	</g>
</g>
<g>
	<rect x="297.3" y="701.4" class="st6" width="174.6" height="25.3"/>
</g>
<g>
	<rect x="261.7" y="760.6" class="st6" width="174.6" height="25.3"/>
</g>
<g>
	
		<rect x="261.7" y="879" transform="matrix(-1 -4.486468e-11 4.486468e-11 -1 698.0228 1783.201)" class="st6" width="174.6" height="25.3"/>
</g>
<g>
	
		<rect x="297.3" y="938.1" transform="matrix(-1 -4.486468e-11 4.486468e-11 -1 769.1492 1901.5398)" class="st6" width="174.6" height="25.3"/>
</g>
<g>
	<rect x="239.1" y="819.8" class="st6" width="174.6" height="25.3"/>
</g>
</svg>