<?xml version="1.0" encoding="utf-8"?>
<!-- Generator: Adobe Illustrator 21.1.0, SVG Export Plug-In . SVG Version: 6.00 Build 0)  -->
<svg version="1.1" id="Layer_1" xmlns="http://www.w3.org/2000/svg" xmlns:xlink="http://www.w3.org/1999/xlink" x="0px" y="0px"
	 viewBox="0 0 126.4 115" style="enable-background:new 0 0 126.4 115;" xml:space="preserve">
<style type="text/css">
	.st0{fill:#EBF4FD;}
	.st1{fill:#FFFFFF;stroke:#A0A0A0;stroke-width:0.5;stroke-miterlimit:10;}
	.st2{fill:#FFFFFF;stroke:#F22F2F;stroke-width:0.5;stroke-miterlimit:10;}
	.st3{fill:#F22F2F;}
	.st4{font-family:'MyriadPro-Bold';}
	.st5{font-size:9.4297px;}
	.st6{fill:#A0A0A0;}
	.st7{fill:#F5F5F5;}
	.st8{fill:#E6E6E6;}
	.st9{fill:#AFE4FC;}
	.st10{fill:#2B597F;}
	.st11{fill:#0D3B6D;}
</style>
<path class="st0" d="M11.5,94.5C22.3,109.6,40,113,55,112.6c2.5,0.8,5,1.4,7.6,1.9c10.4,1.7,21.2-0.4,30.1-5.9
	c2.7-0.3,5.4-0.9,7.9-1.9c17.8-6.7,30.3-28.9,24-51.7c-2-7.2-5.5-14-9.5-19.7c-2.5-3.2-5.8-6.2-9-9.1c-2.6-1.8-5.4-3.2-8.2-4.3
	C77-15.8,41.3,2.8,19.3,21.2c-6.7,5.1-12.4,11-15.9,19.6C0.5,48.3,0.2,55.4,0,63.5c0.1,5,1,9.9,2.8,14.7c1.6,3.8,3,6.6,4.7,10.1
	C8.8,90.5,10.1,92.5,11.5,94.5z"/>
<rect x="92.7" y="88.9" transform="matrix(-0.7071 -0.7071 0.7071 -0.7071 98.5107 224.6279)" class="st1" width="6.1" height="6.1"/>
<rect x="8.9" y="36.7" transform="matrix(-0.7071 -0.7071 0.7071 -0.7071 -8.1703 75.3221)" class="st2" width="5.3" height="5.3"/>
<polygon class="st1" points="105.3,33.4 109.3,26.6 113.9,33 "/>
<text transform="matrix(-1 0 0 -1 25.5645 91.9116)" class="st3 st4 st5">+</text>
<text transform="matrix(-1 0 0 -1 120.4883 45.8686)" class="st6 st4 st5">+</text>
<path class="st7" d="M51.4,41.8h34c0.3,0,0.6,0.3,0.6,0.6v45.4c0,0.3-0.3,0.6-0.6,0.6h-34c-0.3,0-0.6-0.3-0.6-0.6V42.3
	C50.8,42,51,41.8,51.4,41.8L51.4,41.8z M51.4,41.8"/>
<path class="st8" d="M83.3,41.8v43.4c0,0.3-0.3,0.6-0.6,0.6h-32V42.3c0-0.3,0.3-0.6,0.6-0.6H83.3z M83.3,41.8"/>
<path class="st7" d="M80.5,37h-34c-0.3,0-0.6,0.3-0.6,0.6v45.4c0,0.3,0.3,0.6,0.6,0.6h34c0.3,0,0.6-0.3,0.6-0.6V37.5
	C81.1,37.2,80.8,37,80.5,37L80.5,37z M80.5,37"/>
<path class="st8" d="M78.5,37v43.4c0,0.3-0.3,0.6-0.6,0.6H46V37.5c0-0.3,0.3-0.6,0.6-0.6H78.5z M78.5,37"/>
<path class="st7" d="M76.3,32.7v45.4c0,0.3-0.3,0.6-0.6,0.6H42.3c-3.1,0-5.6-2.5-5.6-5.6v-1.5c0-0.3,0.3-0.6,0.6-0.6h3.4
	c0,0,0,0,0,0c0.3,0,0.5-0.3,0.5-0.6V32.7c0-0.3,0.3-0.6,0.6-0.6h34C76,32.2,76.3,32.4,76.3,32.7L76.3,32.7z M76.3,32.7"/>
<path class="st9" d="M55.4,48.5h-9.7c-0.3,0-0.6-0.3-0.6-0.6v-9.7c0-0.3,0.3-0.6,0.6-0.6h9.7c0.3,0,0.6,0.3,0.6,0.6V48
	C56,48.3,55.7,48.5,55.4,48.5L55.4,48.5z M55.4,48.5"/>
<path class="st10" d="M72.3,47.9H59.9c-0.5,0-0.8-0.4-0.8-0.8s0.4-0.8,0.8-0.8h12.4c0.5,0,0.8,0.4,0.8,0.8S72.8,47.9,72.3,47.9
	L72.3,47.9z M72.3,47.9"/>
<path class="st10" d="M65,55.6H52.5c-0.5,0-0.8-0.4-0.8-0.8s0.4-0.8,0.8-0.8H65c0.5,0,0.8,0.4,0.8,0.8S65.5,55.6,65,55.6L65,55.6z
	 M65,55.6"/>
<path class="st10" d="M72.3,44H59.9c-0.5,0-0.8-0.4-0.8-0.8c0-0.5,0.4-0.8,0.8-0.8h12.4c0.5,0,0.8,0.4,0.8,0.8
	C73.2,43.6,72.8,44,72.3,44L72.3,44z M72.3,44"/>
<path class="st10" d="M72.3,40H59.9c-0.5,0-0.8-0.4-0.8-0.8c0-0.5,0.4-0.8,0.8-0.8h12.4c0.5,0,0.8,0.4,0.8,0.8
	C73.2,39.6,72.8,40,72.3,40L72.3,40z M72.3,40"/>
<path class="st10" d="M72.3,65.6H45.2c-0.5,0-0.8-0.4-0.8-0.8s0.4-0.8,0.8-0.8h27.2c0.5,0,0.8,0.4,0.8,0.8S72.8,65.6,72.3,65.6
	L72.3,65.6z M72.3,65.6"/>
<path class="st10" d="M72.3,60.5H57.6c-0.5,0-0.8-0.4-0.8-0.8c0-0.5,0.4-0.8,0.8-0.8h14.8c0.5,0,0.8,0.4,0.8,0.8
	C73.2,60.2,72.8,60.5,72.3,60.5L72.3,60.5z M72.3,60.5"/>
<path class="st10" d="M53.6,60.5h-8.5c-0.5,0-0.8-0.4-0.8-0.8c0-0.5,0.4-0.8,0.8-0.8h8.5c0.5,0,0.8,0.4,0.8,0.8
	C54.5,60.2,54.1,60.5,53.6,60.5L53.6,60.5z M53.6,60.5"/>
<path class="st9" d="M70.7,78.7H42.3c-3.1,0-5.6-2.5-5.6-5.6v-1.5c0-0.3,0.3-0.6,0.6-0.6h3.4c0,0,0,0,0,0h23.9
	c0.3,0,0.6,0.3,0.6,0.6V73C65.2,76.1,67.6,78.6,70.7,78.7L70.7,78.7z M70.7,78.7"/>
<path class="st11" d="M85.9,40.9h-3.9V37c0-0.5-0.4-0.8-0.8-0.8h-3.9v-3.9c0-0.5-0.4-0.8-0.8-0.8H41.2c-0.5,0-0.8,0.4-0.8,0.8v38
	h-3.7c-0.5,0-0.8,0.4-0.8,0.8v2c0,3.6,2.9,6.5,6.5,6.5h2.8v3.9c0,0.5,0.4,0.8,0.8,0.8h3.9v3.9c0,0.5,0.4,0.8,0.8,0.8h17
	c0.5,0,0.8-0.4,0.8-0.8c0-0.5-0.4-0.8-0.8-0.8H51.6v-3.1h29.4c0.5,0,0.8-0.4,0.8-0.8V70.1c0-0.5-0.4-0.8-0.8-0.8s-0.8,0.4-0.8,0.8
	v12.5H46.8v-3.1h29.4c0.5,0,0.8-0.4,0.8-0.8V37.8h3.1v28.5c0,0.5,0.4,0.8,0.8,0.8s0.8-0.4,0.8-0.8V42.6H85v44.8H71.6
	c-0.5,0-0.8,0.4-0.8,0.8c0,0.5,0.4,0.8,0.8,0.8h14.3c0.5,0,0.8-0.4,0.8-0.8V41.8C86.7,41.3,86.3,40.9,85.9,40.9L85.9,40.9z
	 M75.4,77.8h-4.7c-2.6,0-4.8-2.2-4.8-4.8v-2c0-0.5-0.4-0.8-0.8-0.8h-5.9c-0.5,0-0.8,0.4-0.8,0.8s0.4,0.8,0.8,0.8h5V73
	c0,1.9,0.8,3.6,2.1,4.8H42.3c-2.6,0-4.8-2.2-4.8-4.8v-1.2h17.8c0.5,0,0.8-0.4,0.8-0.8s-0.4-0.8-0.8-0.8H42.1V33h33.4V77.8z
	 M75.4,77.8"/>
<path class="st11" d="M45.2,49.4H56c0.5,0,0.8-0.4,0.8-0.8V37.7c0-0.5-0.4-0.8-0.8-0.8H45.2c-0.5,0-0.8,0.4-0.8,0.8v10.8
	C44.3,49,44.7,49.4,45.2,49.4L45.2,49.4z M46,38.5h9.1v9.1H46V38.5z M46,38.5"/>
<path class="st11" d="M72.3,46.2H59.9c-0.5,0-0.8,0.4-0.8,0.8s0.4,0.8,0.8,0.8h12.4c0.5,0,0.8-0.4,0.8-0.8S72.8,46.2,72.3,46.2
	L72.3,46.2z M72.3,46.2"/>
<path class="st11" d="M51.6,54.7c0,0.5,0.4,0.8,0.8,0.8H65c0.5,0,0.8-0.4,0.8-0.8s-0.4-0.8-0.8-0.8H52.5
	C52,53.9,51.6,54.3,51.6,54.7L51.6,54.7z M51.6,54.7"/>
<path class="st11" d="M72.3,42.3H59.9c-0.5,0-0.8,0.4-0.8,0.8c0,0.5,0.4,0.8,0.8,0.8h12.4c0.5,0,0.8-0.4,0.8-0.8
	C73.2,42.7,72.8,42.3,72.3,42.3L72.3,42.3z M72.3,42.3"/>
<path class="st11" d="M72.3,38.3H59.9c-0.5,0-0.8,0.4-0.8,0.8c0,0.5,0.4,0.8,0.8,0.8h12.4c0.5,0,0.8-0.4,0.8-0.8
	C73.2,38.7,72.8,38.3,72.3,38.3L72.3,38.3z M72.3,38.3"/>
<path class="st11" d="M72.3,63.9H45.2c-0.5,0-0.8,0.4-0.8,0.8s0.4,0.8,0.8,0.8h27.2c0.5,0,0.8-0.4,0.8-0.8S72.8,63.9,72.3,63.9
	L72.3,63.9z M72.3,63.9"/>
<path class="st11" d="M72.3,58.9H57.6c-0.5,0-0.8,0.4-0.8,0.8c0,0.5,0.4,0.8,0.8,0.8h14.8c0.5,0,0.8-0.4,0.8-0.8
	C73.2,59.2,72.8,58.9,72.3,58.9L72.3,58.9z M72.3,58.9"/>
<path class="st11" d="M45.1,60.5h8.5c0.5,0,0.8-0.4,0.8-0.8c0-0.5-0.4-0.8-0.8-0.8h-8.5c-0.5,0-0.8,0.4-0.8,0.8
	C44.3,60.2,44.6,60.5,45.1,60.5L45.1,60.5z M45.1,60.5"/>
</svg>
