<?xml version="1.0" encoding="utf-8"?>
<!-- Generator: Adobe Illustrator 21.1.0, SVG Export Plug-In . SVG Version: 6.00 Build 0)  -->
<svg version="1.1" id="Layer_1" xmlns="http://www.w3.org/2000/svg" xmlns:xlink="http://www.w3.org/1999/xlink" x="0px" y="0px"
	 viewBox="0 0 127.5 116.2" style="enable-background:new 0 0 127.5 116.2;" xml:space="preserve">
<style type="text/css">
	.st0{fill:#EBF4FD;}
	.st1{fill:#FFFFFF;stroke:#A0A0A0;stroke-width:0.5;stroke-miterlimit:10;}
	.st2{fill:#FFFFFF;stroke:#F22F2F;stroke-width:0.5;stroke-miterlimit:10;}
	.st3{fill:#F22F2F;}
	.st4{font-family:'MyriadPro-Bold';}
	.st5{font-size:9.4297px;}
	.st6{fill:#A0A0A0;}
	.st7{fill:#AFE4FC;}
	.st8{fill:#FFFFFF;}
	.st9{fill:#0D3B6D;}
</style>
<path class="st0" d="M12.2,21.3C23,6.1,40.6,2.7,55.7,3.2c2.5-0.8,5-1.4,7.6-1.9c10.4-1.7,21.2,0.4,30.1,5.9
	c2.7,0.3,5.4,0.9,7.9,1.9c17.8,6.7,30.3,28.9,24,51.7c-2,7.2-5.5,14-9.5,19.7c-2.5,3.2-5.8,6.2-9,9.1c-2.6,1.8-5.4,3.2-8.2,4.3
	c-21,37.6-56.7,19.1-78.7,0.6C13.2,89.4,7.5,83.5,4,74.9c-2.8-7.5-3.2-14.6-3.4-22.7c0.1-5,1-9.9,2.8-14.7c1.6-3.8,3-6.6,4.7-10.1
	C9.4,25.2,10.8,23.2,12.2,21.3z"/>
<rect x="93.3" y="89.6" transform="matrix(0.7071 -0.7071 0.7071 0.7071 -37.2516 95.2841)" class="st1" width="6.1" height="6.1"/>
<rect x="9.5" y="37.5" transform="matrix(0.7071 -0.7071 0.7071 0.7071 -24.8068 20.3211)" class="st2" width="5.3" height="5.3"/>
<polygon class="st1" points="106,34.1 109.9,27.3 114.5,33.7 "/>
<text transform="matrix(-1 0 0 -1 26.1865 92.6348)" class="st3 st4 st5">+</text>
<text transform="matrix(-1 0 0 -1 121.1104 46.5918)" class="st6 st4 st5">+</text>
<circle class="st7" cx="63.8" cy="55.5" r="30.7"/>
<path class="st8" d="M83.9,68.2H43.6c-2.3,0-4.3-1.9-4.3-4.3v-29c0-2.3,1.9-4.3,4.3-4.3H84c2.3,0,4.3,1.9,4.3,4.3v29
	C88.2,66.3,86.3,68.2,83.9,68.2z"/>
<path class="st8" d="M54.3,79.4H38.1c-1.6,0-2.8-1.3-2.8-2.8V53.2c0-1.6,1.3-2.8,2.8-2.8h16.2c1.6,0,2.8,1.3,2.8,2.8v23.3
	C57.2,78.1,55.9,79.4,54.3,79.4z"/>
<path class="st8" d="M88.6,79.4h-6c-1.6,0-2.8-1.3-2.8-2.8V58.9c0-1.6,1.3-2.8,2.8-2.8h6c1.6,0,2.8,1.3,2.8,2.8v17.7
	C91.5,78.1,90.2,79.4,88.6,79.4z"/>
<path class="st9" d="M89.7,55.2h-1V34.9c0-2.7-2.2-4.8-4.8-4.8H43.3c-2.7,0-4.8,2.2-4.8,4.8v14.5h-1c-1.6,0-2.9,1.3-2.9,2.9v25.1
	c0,1.6,1.3,2.9,2.9,2.9l0,0h36.7c0.5,0,1-0.4,1-1c0-2.7-2.2-4.8-4.8-4.8h-2.9v-5.8h11.6v8.7c0,1.6,1.3,2.9,2.9,2.9l0,0h7.7
	c1.6,0,2.9-1.3,2.9-2.9l0,0V58.1C92.6,56.5,91.3,55.2,89.7,55.2z M55.9,77.4c0,0.5-0.4,1-1,1H37.5c-0.5,0-1-0.4-1-1v-1h19.3v1H55.9z
	 M55.9,74.5H36.6V52.3c0-0.5,0.4-1,1-1H55c0.5,0,1,0.4,1,1L55.9,74.5L55.9,74.5z M70.4,76.5c1.2,0,2.3,0.8,2.7,1.9H57.7
	c0.1-0.3,0.2-0.6,0.2-1v-1L70.4,76.5L70.4,76.5z M57.8,74.5v-5.8h1.9v5.8H57.8z M61.7,74.5v-5.8h3.9v5.8H61.7z M79.1,66.8H57.8V61
	h21.3V66.8z M79.1,58.1v1H57.8v-6.8c0-0.5-0.1-0.9-0.3-1.3l0,0l9.6-9.6c0.4-0.4,0.4-1,0-1.4s-1-0.4-1.3,0l-9.6,9.6
	c0,0,0,0.1-0.1,0.1c-0.4-0.2-0.8-0.3-1.2-0.3H40.4V34.9c0-1.6,1.3-2.9,2.9-2.9h40.6c1.6,0,2.9,1.3,2.9,2.9v20.3H82
	C80.4,55.2,79.1,56.5,79.1,58.1z M90.7,77.4c0,0.5-0.4,1-1,1H82c-0.5,0-1-0.4-1-1v-1h9.7V77.4z M90.7,74.5H81V58.1c0-0.5,0.4-1,1-1
	h7.7c0.5,0,1,0.4,1,1V74.5z"/>
<g>
	<path class="st9" d="M46.2,61.2c-0.4-0.4-1-0.4-1.4,0l-4.1,4.1c-0.4,0.4-0.4,1,0,1.4s1,0.4,1.4,0l0,0l4.1-4.1
		C46.6,62.2,46.6,61.5,46.2,61.2z"/>
	<path class="st9" d="M50.6,61.2l-4.1,4.1c-0.4,0.4-0.4,1,0,1.4s1,0.4,1.4,0l0,0l4.1-4.1c0.4-0.4,0.4-1,0-1.4
		C51.6,60.8,51,60.8,50.6,61.2z"/>
	<path class="st9" d="M71.7,40l-9.6,9.6c-0.4,0.4-0.4,1,0,1.4s1,0.4,1.4,0l0,0l9.6-9.6c0.4-0.4,0.4-1,0-1.4
		C72.6,39.7,72,39.7,71.7,40z"/>
	<path class="st9" d="M86.6,63.8l-2.8,2.7c-0.4,0.4-0.4,1,0,1.4s1,0.4,1.4,0l0,0l2.7-2.7c0.4-0.4,0.4-1,0-1.4S86.9,63.4,86.6,63.8z"
		/>
	<path class="st9" d="M63.7,64.9c0.5,0,1-0.4,1-1s-0.4-1-1-1l0,0c-0.5,0-1,0.4-1,1C62.7,64.4,63.1,64.9,63.7,64.9z"/>
	<path class="st9" d="M65.6,33.9h-3.9c-0.5,0-1,0.4-1,1s0.4,1,1,1h3.9c0.5,0,1-0.4,1-1S66.1,33.9,65.6,33.9z"/>
</g>
</svg>
