<?xml version="1.0" encoding="utf-8"?>
<!-- Generator: Adobe Illustrator 21.1.0, SVG Export Plug-In . SVG Version: 6.00 Build 0)  -->
<svg version="1.1" id="Layer_1" xmlns="http://www.w3.org/2000/svg" xmlns:xlink="http://www.w3.org/1999/xlink" x="0px" y="0px"
	 viewBox="0 0 127.1 115.8" style="enable-background:new 0 0 127.1 115.8;" xml:space="preserve">
<style type="text/css">
	.st0{fill:#EBF4FD;}
	.st1{fill:#FFFFFF;stroke:#A0A0A0;stroke-width:0.5;stroke-miterlimit:10;}
	.st2{fill:#FFFFFF;stroke:#F22F2F;stroke-width:0.5;stroke-miterlimit:10;}
	.st3{fill:#F22F2F;}
	.st4{font-family:'MyriadPro-Bold';}
	.st5{font-size:9.4297px;}
	.st6{fill:#A0A0A0;}
	.st7{fill:#AFE4FC;}
	.st8{fill:#FFFFFF;}
	.st9{fill:#0D3B6D;}
</style>
<path class="st0" d="M11.9,94.8c10.8,15.1,28.4,18.5,43.5,18.1c2.5,0.8,5,1.4,7.6,1.9c10.4,1.7,21.2-0.4,30.1-5.9
	c2.7-0.3,5.4-0.9,7.9-1.9c17.8-6.7,30.3-28.9,24-51.7c-2-7.2-5.5-14-9.5-19.7c-2.5-3.2-5.8-6.2-9-9.1c-2.6-1.8-5.4-3.2-8.2-4.3
	c-21-37.6-56.6-19.1-78.7-0.6c-6.7,5.1-12.4,11-15.9,19.6c-2.8,7.5-3.2,14.6-3.4,22.7c0.1,5,1,9.9,2.8,14.7c1.6,3.8,3,6.6,4.7,10.1
	C9.1,90.8,10.5,92.9,11.9,94.8z"/>
<rect x="93.1" y="89.3" transform="matrix(0.7071 -0.7071 0.7071 0.7071 -37.1103 95.0531)" class="st1" width="6.1" height="6.1"/>
<rect x="9.3" y="37" transform="matrix(0.7071 -0.7071 0.7071 0.7071 -24.5655 20.0486)" class="st2" width="5.3" height="5.3"/>
<polygon class="st1" points="105.7,33.8 109.6,26.9 114.3,33.3 "/>
<text transform="matrix(-1 0 0 -1 25.9788 92.3021)" class="st3 st4 st5">+</text>
<text transform="matrix(-1 0 0 -1 120.9027 46.2591)" class="st6 st4 st5">+</text>
<circle class="st7" cx="63.6" cy="60.1" r="32.6"/>
<polygon class="st8" points="83.1,79.5 82.8,82.9 44.2,82.9 43.9,80 40.4,79.5 40.4,40.8 43.8,40.5 44.1,37.2 82.8,37.2 82.9,40.8 
	86.6,40.8 86.6,79.5 "/>
<path class="st9" d="M89.9,41.6c0.5,0,0.9-0.4,0.9-0.9v-7.1c0-0.5-0.4-0.9-0.9-0.9h-7.1c-0.5,0-0.9,0.4-0.9,0.9v2.7h-37v-2.6
	c0-0.5-0.4-0.9-0.9-0.9h-7.1c-0.5,0-0.9,0.4-0.9,0.9v7.1c0,0.5,0.4,0.9,0.9,0.9h2.6v37h-2.6c-0.5,0-0.9,0.4-0.9,0.9v7.1
	c0,0.5,0.4,0.9,0.9,0.9H44c0.5,0,0.9-0.4,0.9-0.9v-2.6h37v2.6c0,0.5,0.4,0.9,0.9,0.9h7.1c0.5,0,0.9-0.4,0.9-0.9v-7.1
	c0-0.5-0.4-0.9-0.9-0.9h-2.6v-37h2.6V41.6z M37.9,39.8v-5.3h5.3v5.3H37.9z M43.2,85.7h-5.3v-5.3h5.3V85.7z M82,79.5v2.6H45v-2.6
	c0-0.5-0.4-0.9-0.9-0.9h-2.6v-37h2.6c0.5,0,0.9-0.4,0.9-0.9v-2.6h37v2.6c0,0.5,0.4,0.9,0.9,0.9h2.6v37h-2.6
	C82.4,78.7,82,79.1,82,79.5L82,79.5z M89,80.4v5.3h-5.3v-5.3H89z M83.7,39.8v-5.3H89v5.3H83.7z"/>
<path class="st9" d="M74,46.9H52.9c-0.5,0-0.9,0.4-0.9,0.9v7.1c0,0.5,0.4,0.9,0.9,0.9h1.7c0.4,0,0.7-0.3,0.8-0.6l0.8-2.9h4.6v17
	L57.9,70c-0.3,0-0.6,0.3-0.6,0.7v1.8c0,0.5,0.4,0.9,0.9,0.9h10.6c0.5,0,0.9-0.4,0.9-0.9v-1.8c0-0.4-0.3-0.8-0.7-0.9l-2.9-0.7v-17
	h4.6l0.8,2.9c0.1,0.4,0.5,0.6,0.8,0.6H74c0.5,0,0.9-0.4,0.9-0.9v-7.1C74.9,47.3,74.5,46.9,74,46.9L74,46.9z M73.2,54L73.2,54
	l-0.9-2.9c-0.1-0.4-0.5-0.6-0.8-0.6h-6.2c-0.5,0-0.9,0.4-0.9,0.9v18.5c0,0.4,0.3,0.8,0.7,0.9l2.9,0.7v0.2h-8.8v-0.2l2.9-0.7
	c0.4-0.1,0.7-0.5,0.7-0.9V51.3c0-0.5-0.4-0.9-0.9-0.9h-6.2c-0.4,0-0.7,0.3-0.8,0.6l-0.8,2.9H54v-5.3h19.4V54H73.2z"/>
<path class="st9" d="M74.9,75.1H52c-0.5,0-0.9,0.4-0.9,0.9s0.4,0.9,0.9,0.9h22.9c0.5,0,0.9-0.4,0.9-0.9S75.4,75.1,74.9,75.1
	L74.9,75.1z"/>
<path class="st9" d="M67,77.8h-7.1c-0.5,0-0.9,0.4-0.9,0.9s0.4,0.9,0.9,0.9H67c0.5,0,0.9-0.4,0.9-0.9S67.5,77.8,67,77.8L67,77.8z"/>
</svg>
