<?xml version="1.0" encoding="UTF-8"?>
<!-- Generator: Adobe Illustrator 21.1.0, SVG Export Plug-In . SVG Version: 6.00 Build 0)  -->
<svg version="1.1" id="Layer_1" xmlns="http://www.w3.org/2000/svg" xmlns:xlink="http://www.w3.org/1999/xlink" x="0px" y="0px" viewBox="0 0 1773.2 1557.2" style="enable-background:new 0 0 1773.2 1557.2;" xml:space="preserve">
<style type="text/css">
	.st0{fill:#EBF4FD;}
	.st1{fill:#FFFFFF;}
	.st2{fill:#0D3B6D;}
	.st3{fill:#AFE4FC;}
	.st4{fill:#62AF69;}
	.st5{fill:#A0A0A0;}
	.st6{fill:#F22F2F;}
</style>
<path class="st0" d="M1248.2,456.7c0,0-145.5-246-176.7-353.5C1040.2-4.2,698.1-36.7,357.6,221.1c-401.8,304.2-246,883.7-246,883.7  s124.8,578.6,1237.2,360.3c0,0,578.7-485.1,339.6-748.4C1688.3,716.6,1411,630,1248.2,456.7z"/>
<g>
	<path class="st1" d="M1230,1526.7H565.1c-3.3,0-6-2.7-6-6V341.9c0-3.3,2.7-6,6-6H1230c3.3,0,6,2.7,6,6v1178.9   C1236,1524.1,1233.3,1526.7,1230,1526.7z"/>
	<path class="st2" d="M1152.7,1537.1H642.3c-51.6,0-93.6-42-93.6-93.6V419.1c0-51.6,42-93.6,93.6-93.6h510.4   c51.6,0,93.6,42,93.6,93.6v1024.4C1246.4,1495.1,1204.4,1537.1,1152.7,1537.1z M642.3,346.2c-40.2,0-72.9,32.7-72.9,72.9v1024.4   c0,40.2,32.7,72.9,72.9,72.9h510.4c40.2,0,72.9-32.7,72.9-72.9V419.1c0-40.2-32.7-72.9-72.9-72.9H642.3z"/>
</g>
<rect x="569.6" y="476.7" class="st3" width="655.8" height="925.3"/>
<g>
	<rect x="557.9" y="466.3" class="st2" width="679.2" height="20.8"/>
</g>
<g>
	<rect x="557.9" y="1377.7" class="st2" width="679.2" height="20.8"/>
</g>
<rect x="668.8" y="591.1" class="st1" width="457.4" height="58.9"/>
<polygon class="st1" points="842.1,764.3 700,951.5 1095.1,951.5 991.1,819.8 921.8,888.7 "/>
<circle class="st1" cx="1017.9" cy="731.4" r="26"/>
<g>
	<circle class="st1" cx="1220.6" cy="1263.4" r="225.3"/>
	<path class="st2" d="M1220.6,1499.1c-130,0-235.7-105.7-235.7-235.7s105.7-235.7,235.7-235.7s235.7,105.7,235.7,235.7   S1350.6,1499.1,1220.6,1499.1z M1220.6,1048.4c-118.5,0-214.9,96.4-214.9,214.9c0,118.5,96.4,214.9,214.9,214.9   s214.9-96.4,214.9-214.9C1435.5,1144.9,1339.1,1048.4,1220.6,1048.4z"/>
</g>
<path class="st1" d="M1053.5,1069.3H668.8v29.5h355.5C1033.2,1088.1,1043,1078.4,1053.5,1069.3z"/>
<path class="st1" d="M996.5,1139.2H668.8v29.5h313.8C986.7,1158.5,991.2,1148.6,996.5,1139.2z"/>
<path class="st1" d="M970.2,1209.1H668.8v29.5h296.8C966.5,1228.5,968.1,1218.7,970.2,1209.1z"/>
<path class="st1" d="M965.1,1279H668.8v29.5h299.7C966.8,1298.8,965.7,1288.9,965.1,1279z"/>
<rect x="489.4" y="1516.6" class="st2" width="759.1" height="20.3"/>
<rect x="1279.5" y="1516.6" class="st2" width="93.8" height="20.3"/>
<g>
	<g>
		<path class="st4" d="M1226.1,1368.6c-6.4,8.6-16.3,14-27,14.5c-10.7,0.5-21.1-3.8-28.3-11.8l-64.4-71.5    c-10.2-11.4-9.3-28.8,2-39.1c11.4-10.2,28.8-9.3,39.1,2l45.6,50.6c0.7,0.8,1.7,1.2,2.7,1.1c1,0,1.9-0.6,2.5-1.4l93.6-127    c9.1-12.3,26.4-14.9,38.7-5.9c12.3,9.1,14.9,26.4,5.8,38.7L1226.1,1368.6z"/>
	</g>
</g>
<g>
	
		<rect x="228.3" y="55.4" transform="matrix(0.7071 0.7071 -0.7071 0.7071 148.1725 -162.673)" class="st1" width="84.3" height="84.3"/>
	<path class="st5" d="M270.5,162L206,97.5L270.5,33l64.5,64.5L270.5,162z M215.8,97.5l54.7,54.7l54.7-54.7l-54.7-54.7L215.8,97.5z"/>
</g>
<g>
	
		<rect x="1409.3" y="851" transform="matrix(0.7071 0.7071 -0.7071 0.7071 1051.1172 -762.4441)" class="st1" width="73.2" height="73.2"/>
	<path class="st6" d="M1445.9,944.3l-56.7-56.7l56.7-56.7l56.7,56.7L1445.9,944.3z M1399,887.6l46.9,46.9l46.9-46.9l-46.9-46.9   L1399,887.6z"/>
</g>
<g>
	<polygon class="st1" points="145.6,411.7 91.1,506.8 26.7,418.1  "/>
	<path class="st5" d="M91.4,513.2l-71.2-98.2l131.6-7L91.4,513.2z M33.3,421.2l57.5,79.3l48.7-84.9L33.3,421.2z"/>
</g>
<g>
	<path class="st6" d="M1098.9,59.2v28.5h27.3v12.2h-27.3v28.9h-12.8V99.8h-27.3V87.6h27.3V59.2H1098.9z"/>
</g>
<g>
	<path class="st5" d="M1556.3,1099.1v28.5h27.3v12.2h-27.3v28.9h-12.8v-28.9h-27.3v-12.2h27.3v-28.5H1556.3z"/>
</g>
</svg>