<?xml version="1.0" encoding="UTF-8"?>
<!-- Generator: Adobe Illustrator 21.1.0, SVG Export Plug-In . SVG Version: 6.00 Build 0)  -->
<svg version="1.1" id="Layer_1" xmlns="http://www.w3.org/2000/svg" xmlns:xlink="http://www.w3.org/1999/xlink" x="0px" y="0px" viewBox="0 0 1773.2 1557.2" style="enable-background:new 0 0 1773.2 1557.2;" xml:space="preserve">
<style type="text/css">
	.st0{fill:#EBF4FD;}
	.st1{fill:#FFFFFF;}
	.st2{fill:#A0A0A0;}
	.st3{fill:#F22F2F;}
	.st4{fill:#AFE4FC;}
	.st5{fill:#0D3B6D;}
	.st6{fill:#62AF69;}
</style>
<g>
	<path class="st0" d="M1564.7,1274.3c-141.5,198.8-373.6,243.2-571.3,237.9c-32.6,10.4-66.2,18.9-100.2,24.4   c-136.1,22.1-279-4.8-396-77.1c-35.9-3.9-70.8-12.4-104.3-25.1C158.5,1345.7-5.2,1055.1,78,755c26.2-94.6,72.2-183.8,124.8-258.3   c32.9-41.8,75.6-80.9,118.4-120c34.5-23.9,70.5-42,107.4-56.3c276.7-494.6,745.2-251.1,1034.9-8.2   c88.1,66.4,162.9,144.1,208.7,257.1c37.3,98.5,42,192,44.3,298.5c-1.3,66.1-13.5,130.6-36.5,193.4c-20.6,49.9-38.8,87-62.1,132.5   C1601.4,1222.1,1583.5,1248.9,1564.7,1274.3z"/>
</g>
<g>
	
		<rect x="418" y="296.4" transform="matrix(0.7071 0.7071 -0.7071 0.7071 371.9263 -225.2849)" class="st1" width="79.9" height="79.9"/>
	<path class="st2" d="M457.9,397.4l-61.1-61.1l61.1-61.1l61.1,61.1L457.9,397.4z M406.1,336.3l51.8,51.8l51.8-51.8l-51.8-51.8   L406.1,336.3z"/>
</g>
<g>
	
		<rect x="1530.5" y="992.3" transform="matrix(0.7071 0.7071 -0.7071 0.7071 1184.6117 -805.9597)" class="st1" width="69.4" height="69.4"/>
	<path class="st3" d="M1565.2,1080.7l-53.7-53.7l53.7-53.7l53.7,53.7L1565.2,1080.7z M1520.8,1027l44.4,44.4l44.4-44.4l-44.4-44.4   L1520.8,1027z"/>
</g>
<g>
	<polygon class="st1" points="332.5,1105 280.8,1195.1 219.8,1111  "/>
	<path class="st2" d="M281.1,1201.2l-67.5-93.1l124.7-6.7L281.1,1201.2z M226,1114l54.5,75.1l46.1-80.5L226,1114z"/>
</g>
<g>
	<path class="st3" d="M1423.6,270.4v27h25.9v11.5h-25.9v27.4h-12.1v-27.4h-25.9v-11.5h25.9v-27H1423.6z"/>
</g>
<g>
	<path class="st2" d="M176.2,875.4v27h25.9V914h-25.9v27.4H164V914h-25.9v-11.5H164v-27H176.2z"/>
</g>
<g>
	<circle class="st4" cx="886.3" cy="824.3" r="394.2"/>
	<path class="st5" d="M886.3,1225.1c-221,0-400.8-179.8-400.8-400.8s179.8-400.8,400.8-400.8c221,0,400.8,179.8,400.8,400.8   S1107.3,1225.1,886.3,1225.1z M886.3,436.7c-213.8,0-387.7,173.9-387.7,387.7c0,213.8,173.9,387.7,387.7,387.7   s387.7-173.9,387.7-387.7C1273.9,610.6,1100,436.7,886.3,436.7z"/>
</g>
<g>
	<g>
		<g>
			<path class="st1" d="M718.6,803.4c1.3,3,4.2,5,7.4,5h87.9v200.5c0,4.4,3.6,8,8,8h128.3c4.4,0,8-3.6,8-8V808.4h88.2     c3.2,0,6.2-2,7.4-4.9c1.2-3,0.6-6.4-1.7-8.7l-160-160.6c-1.5-1.5-3.5-2.4-5.7-2.4s-4.2,0.9-5.7,2.3L720.3,794.7     C718,796.9,717.4,800.4,718.6,803.4z"/>
			<path class="st5" d="M950.3,1026.8H821.9c-9.9,0-17.9-8-17.9-17.9V818.2h-78c-7.2,0-13.7-4.3-16.5-11c-2.8-6.7-1.3-14.4,3.9-19.5     l160.5-160.6c6.8-6.8,18.5-6.7,25.3,0l160,160.6c5.1,5.1,6.6,12.7,3.9,19.5c-2.8,6.7-9.3,11-16.5,11h-78.4v190.7     C968.1,1018.7,960.1,1026.8,950.3,1026.8z M823.8,1007h124.7V798.5h93.7L886.5,642.4L730.4,798.5h93.3V1007z"/>
		</g>
	</g>
</g>
<g>
	<circle class="st6" cx="1189.2" cy="1067.6" r="82.5"/>
	<path class="st5" d="M1189.2,1156.6c-49.1,0-89.1-39.9-89.1-89.1c0-49.1,39.9-89.1,89.1-89.1c49.1,0,89.1,39.9,89.1,89.1   C1278.2,1116.7,1238.3,1156.6,1189.2,1156.6z M1189.2,991.7c-41.9,0-75.9,34.1-75.9,75.9s34.1,75.9,75.9,75.9s75.9-34.1,75.9-75.9   S1231,991.7,1189.2,991.7z"/>
</g>
</svg>