<?xml version="1.0" encoding="UTF-8"?>
<!-- Generator: Adobe Illustrator 21.1.0, SVG Export Plug-In . SVG Version: 6.00 Build 0)  -->
<svg version="1.1" id="Layer_1" xmlns="http://www.w3.org/2000/svg" xmlns:xlink="http://www.w3.org/1999/xlink" x="0px" y="0px" viewBox="0 0 1773.2 1557.2" style="enable-background:new 0 0 1773.2 1557.2;" xml:space="preserve">
<style type="text/css">
	.st0{fill:#EBF4FD;}
	.st1{fill:#FFFFFF;}
	.st2{fill:#A0A0A0;}
	.st3{fill:#F22F2F;}
	.st4{fill:#AFE4FC;}
	.st5{fill:#0D3B6D;}
	.st6{fill:#62AF69;}
</style>
<g>
	<path class="st0" d="M198.1,284C340.7,83.5,574.7,38.8,773.9,44.2c32.8-10.5,66.7-19.1,101-24.6c137.2-22.2,281.2,4.8,399.1,77.7   c36.2,3.9,71.4,12.5,105.1,25.3c236.3,89.4,401.3,382.3,317.4,684.8c-26.5,95.4-72.8,185.2-125.8,260.4   c-33.1,42.2-76.2,81.6-119.3,121c-34.8,24-71,42.3-108.3,56.7c-278.8,498.6-751.1,253.1-1043.1,8.3   c-88.8-66.9-164.2-145.2-210.4-259.2C52.1,895.3,47.4,801,45.1,693.7c1.3-66.6,13.6-131.6,36.8-194.9   c20.8-50.3,39.1-87.6,62.6-133.6C161.1,336.6,179.2,309.6,198.1,284z"/>
</g>
<g>
	
		<rect x="1273.4" y="1189.1" transform="matrix(-0.7071 -0.7071 0.7071 -0.7071 1373.2977 3027.6143)" class="st1" width="80.5" height="80.5"/>
	<path class="st2" d="M1313.7,1291l-61.6-61.6l61.6-61.6l61.6,61.6L1313.7,1291z M1261.4,1229.4l52.2,52.2l52.3-52.2l-52.3-52.3   L1261.4,1229.4z"/>
</g>
<g>
	
		<rect x="162.6" y="498.3" transform="matrix(-0.7071 -0.7071 0.7071 -0.7071 -39.7115 1050.0321)" class="st1" width="70" height="70"/>
	<path class="st3" d="M197.6,587.4l-54.1-54.1l54.1-54.1l54.1,54.1L197.6,587.4z M152.8,533.2l44.8,44.8l44.8-44.8l-44.8-44.8   L152.8,533.2z"/>
</g>
<g>
	<polygon class="st1" points="1440.1,454.6 1492.2,363.7 1553.7,448.5  "/>
	<path class="st2" d="M1434.2,458.2l57.7-100.6l68,93.9L1434.2,458.2z M1492.5,369.8L1446,451l101.4-5.4L1492.5,369.8z"/>
</g>
<g>
	<path class="st3" d="M340.4,1295.8v-27.2h-26.1V1257h26.1v-27.6h12.2v27.6h26.1v11.6h-26.1v27.2H340.4z"/>
</g>
<g>
	<path class="st2" d="M1597.7,686v-27.2h-26.1v-11.6h26.1v-27.6h12.2v27.6h26.1v11.6h-26.1V686H1597.7z"/>
</g>
<g>
	<circle class="st4" cx="881.9" cy="737.5" r="397.4"/>
	<path class="st5" d="M881.9,1141.5c-222.8,0-404-181.2-404-404s181.2-404,404-404c222.8,0,404,181.2,404,404   S1104.7,1141.5,881.9,1141.5z M881.9,346.7c-215.5,0-390.8,175.3-390.8,390.8c0,215.5,175.3,390.7,390.8,390.7   s390.8-175.3,390.8-390.7C1272.7,522,1097.4,346.7,881.9,346.7z"/>
</g>
<g>
	<g>
		<g>
			<path class="st1" d="M1050.9,758.6c-1.3-3-4.2-5-7.5-5h-88.6V551.5c0-4.5-3.6-8.1-8.1-8.1H817.4c-4.5,0-8.1,3.6-8.1,8.1v202.1     h-88.9c-3.3,0-6.2,2-7.5,5c-1.2,3-0.6,6.5,1.7,8.8L876,929.2c1.5,1.5,3.6,2.4,5.7,2.4s4.2-0.9,5.7-2.4l161.8-161.8     C1051.5,765.1,1052.2,761.6,1050.9,758.6z"/>
			<path class="st5" d="M881.7,941.5c-4.8,0-9.4-1.9-12.8-5.3L707.6,774.4c-5.1-5.1-6.7-12.8-3.9-19.6c2.9-6.8,9.4-11.1,16.7-11.1     h79V551.5c0-9.9,8.1-18,18-18h129.4c9.9,0,18,8.1,18,18v192.2h78.7c7.3,0,13.8,4.4,16.6,11.1c2.8,6.8,1.3,14.5-3.9,19.6     L894.4,936.3C891,939.7,886.5,941.5,881.7,941.5z M724.9,763.5l156.8,157.4L1039,763.5h-94.1V553.3H819.3v210.2H724.9z"/>
		</g>
	</g>
</g>
<g>
	<circle class="st6" cx="576.6" cy="492.3" r="83.1"/>
	<path class="st5" d="M576.6,582.1c-49.5,0-89.8-40.3-89.8-89.8c0-49.5,40.3-89.8,89.8-89.8c49.5,0,89.8,40.3,89.8,89.8   C666.4,541.8,626.1,582.1,576.6,582.1z M576.6,415.8c-42.2,0-76.5,34.3-76.5,76.5c0,42.2,34.3,76.5,76.5,76.5   c42.2,0,76.5-34.3,76.5-76.5C653.1,450.1,618.8,415.8,576.6,415.8z"/>
</g>
</svg>