<?xml version="1.0" encoding="UTF-8"?>
<!-- Generator: Adobe Illustrator 21.1.0, SVG Export Plug-In . SVG Version: 6.00 Build 0)  -->
<svg version="1.1" id="Layer_1" xmlns="http://www.w3.org/2000/svg" xmlns:xlink="http://www.w3.org/1999/xlink" x="0px" y="0px" viewBox="0 0 1773.2 1557.2" style="enable-background:new 0 0 1773.2 1557.2;" xml:space="preserve">
<style type="text/css">
	.st0{fill:#EBF4FD;}
	.st1{fill:#FFFFFF;}
	.st2{fill:#A0A0A0;}
	.st3{fill:#F22F2F;}
	.st4{fill:#AFE4FC;}
	.st5{fill:#0D3B6D;}
	.st6{fill:#62AF69;}
</style>
<g>
	<path class="st0" d="M1568.1,1266.2C1426,1465.8,1193,1510.4,994.5,1505c-32.7,10.4-66.4,19-100.6,24.5   c-136.6,22.2-280.1-4.8-397.6-77.4c-36-3.9-71.1-12.5-104.7-25.2c-235.4-89-399.8-380.8-316.2-682.1   c26.3-95,72.5-184.5,125.3-259.4c33-42,75.9-81.2,118.9-120.5c34.7-23.9,70.8-42.1,107.8-56.5c277.7-496.6,748.1-252.1,1039-8.3   c88.5,66.7,163.6,144.7,209.5,258.1c37.5,98.9,42.2,192.8,44.5,299.7c-1.3,66.4-13.5,131.1-36.7,194.2   c-20.7,50.1-38.9,87.3-62.4,133C1604.9,1213.8,1586.9,1240.7,1568.1,1266.2z"/>
</g>
<g>
	
		<rect x="416.8" y="284.4" transform="matrix(0.7071 0.7071 -0.7071 0.7071 363.2817 -228.0068)" class="st1" width="80.2" height="80.2"/>
	<path class="st2" d="M456.9,385.9l-61.4-61.4l61.4-61.4l61.4,61.4L456.9,385.9z M404.8,324.5l52.1,52l52-52l-52-52L404.8,324.5z"/>
</g>
<g>
	
		<rect x="1533.7" y="983.1" transform="matrix(0.7071 0.7071 -0.7071 0.7071 1179.1943 -810.9874)" class="st1" width="69.7" height="69.7"/>
	<path class="st3" d="M1568.5,1071.9l-53.9-53.9l53.9-53.9l53.9,53.9L1568.5,1071.9z M1523.9,1017.9l44.6,44.6l44.6-44.6l-44.6-44.6   L1523.9,1017.9z"/>
</g>
<g>
	<polygon class="st1" points="330.9,1096.2 279.1,1186.8 217.8,1102.3  "/>
	<path class="st2" d="M279.4,1192.8l-67.8-93.5l125.2-6.7L279.4,1192.8z M224,1105.3l54.7,75.4l46.3-80.8L224,1105.3z"/>
</g>
<g>
	<path class="st3" d="M1426.4,258.3v27.1h26V297h-26v27.5h-12.2V297h-26v-11.6h26v-27.1H1426.4z"/>
</g>
<g>
	<path class="st2" d="M174,865.8v27.1h26v11.6h-26V932h-12.2v-27.5h-26v-11.6h26v-27.1H174z"/>
</g>
<g>
	<g>
		<rect x="644.2" y="459.9" class="st4" width="503" height="761"/>
	</g>
	<g>
		<g>
			<g>
				<path class="st5" d="M1190.2,447H657.1c-7.1,0-12.9,5.8-12.9,12.9v606.2H528.2c-7.1,0-12.9,5.8-12.9,12.9v43      c0.1,54.6,44.3,98.9,98.9,98.9h533.1c7.1,0,12.9-5.8,12.9-12.9V601.8h116.1c7.1,0,12.9-5.8,12.9-12.9v-43      C1289.1,491.3,1244.8,447.1,1190.2,447z M644.2,1195.1h-30.1c-40.4,0-73.1-32.7-73.1-73.1v-30.1h103.2V1195.1z M1134.4,1195.1      H670V472.8h464.3V1195.1z M1263.4,576h-103.2V472.8h30.1c40.4,0,73.1,32.7,73.1,73.1V576z"/>
			</g>
		</g>
	</g>
	<g>
		<g>
			<g>
				<path class="st5" d="M859.8,695.8c-5.1-5.1-13.3-5.1-18.3,0l-68.2,68.4l-29.5-29.7c-5.1-5.1-13.3-5.1-18.3,0      c-5.1,5.1-5.1,13.3,0,18.3l38.7,38.7c5,5.1,13.2,5.1,18.2,0.1c0,0,0,0,0.1-0.1l77.4-77.4C864.8,709.1,864.8,700.9,859.8,695.8z"/>
			</g>
		</g>
	</g>
	<g>
		<g>
			<g>
				<path class="st5" d="M859.8,528.1c-5.1-5.1-13.3-5.1-18.3,0l-68.2,68.4l-29.5-29.7c-5.1-5.1-13.3-5.1-18.3,0s-5.1,13.3,0,18.3      l38.7,38.7c5,5.1,13.2,5.1,18.2,0.1c0,0,0,0,0.1-0.1l77.4-77.4C864.8,541.4,864.8,533.2,859.8,528.1z"/>
			</g>
		</g>
	</g>
	<g>
		<g>
			<g>
				<path class="st5" d="M859.8,879.2c-5.1-5.1-13.3-5.1-18.3,0l-68.2,68.4l-29.5-29.7c-5.1-5.1-13.3-5.1-18.3,0      c-5.1,5.1-5.1,13.3,0,18.3l38.7,38.7c5,5.1,13.2,5.1,18.2,0.1c0,0,0,0,0.1-0.1l77.4-77.4C864.8,892.5,864.8,884.3,859.8,879.2z"/>
			</g>
		</g>
	</g>
	<g>
		<g>
			<g>
				<path class="st5" d="M859.8,1062.6c-5.1-5.1-13.3-5.1-18.3,0l-68.2,68.4l-29.5-29.7c-5.1-5.1-13.3-5.1-18.3,0s-5.1,13.3,0,18.3      l38.7,38.7c5,5.1,13.2,5.1,18.2,0.1c0,0,0-0.1,0.1-0.1l77.4-77.4C864.8,1075.9,864.8,1067.7,859.8,1062.6z"/>
			</g>
		</g>
	</g>
	<g>
		<g>
			<g>
				<path class="st5" d="M1069.9,885.6H915.1c-7.1,0-12.9,5.8-12.9,12.9c0,7.1,5.8,12.9,12.9,12.9h154.8c7.1,0,12.9-5.8,12.9-12.9      C1082.8,891.3,1077,885.6,1069.9,885.6z"/>
			</g>
		</g>
	</g>
	<g>
		<g>
			<g>
				<path class="st5" d="M1069.9,937.2H915.1c-7.1,0-12.9,5.8-12.9,12.9S908,963,915.1,963h154.8c7.1,0,12.9-5.8,12.9-12.9      S1077,937.2,1069.9,937.2z"/>
			</g>
		</g>
	</g>
	<g>
		<g>
			<g>
				<path class="st5" d="M1069.9,1066.1H915.1c-7.1,0-12.9,5.8-12.9,12.9c0,7.1,5.8,12.9,12.9,12.9h154.8c7.1,0,12.9-5.8,12.9-12.9      C1082.8,1071.9,1077,1066.1,1069.9,1066.1z"/>
			</g>
		</g>
	</g>
	<g>
		<g>
			<g>
				<path class="st5" d="M1069.9,1117.7H915.1c-7.1,0-12.9,5.8-12.9,12.9c0,7.1,5.8,12.9,12.9,12.9h154.8c7.1,0,12.9-5.8,12.9-12.9      C1082.8,1123.5,1077,1117.7,1069.9,1117.7z"/>
			</g>
		</g>
	</g>
	<g>
		<g>
			<g>
				<path class="st5" d="M1069.9,524.4H915.1c-7.1,0-12.9,5.8-12.9,12.9s5.8,12.9,12.9,12.9h154.8c7.1,0,12.9-5.8,12.9-12.9      S1077,524.4,1069.9,524.4z"/>
			</g>
		</g>
	</g>
	<g>
		<g>
			<g>
				<path class="st5" d="M1069.9,576H915.1c-7.1,0-12.9,5.8-12.9,12.9s5.8,12.9,12.9,12.9h154.8c7.1,0,12.9-5.8,12.9-12.9      S1077,576,1069.9,576z"/>
			</g>
		</g>
	</g>
	<g>
		<g>
			<g>
				<path class="st5" d="M1069.9,705H915.1c-7.1,0-12.9,5.8-12.9,12.9s5.8,12.9,12.9,12.9h154.8c7.1,0,12.9-5.8,12.9-12.9      S1077,705,1069.9,705z"/>
			</g>
		</g>
	</g>
	<g>
		<g>
			<g>
				<path class="st5" d="M1069.9,756.6H915.1c-7.1,0-12.9,5.8-12.9,12.9s5.8,12.9,12.9,12.9h154.8c7.1,0,12.9-5.8,12.9-12.9      S1077,756.6,1069.9,756.6z"/>
			</g>
		</g>
	</g>
</g>
<g>
	<circle class="st1" cx="1156.1" cy="1131" r="165"/>
	<path class="st5" d="M1156.1,1305.9c-96.4,0-174.8-78.4-174.8-174.8c0-96.4,78.4-174.8,174.8-174.8S1331,1034.6,1331,1131   C1331,1227.4,1252.5,1305.9,1156.1,1305.9z M1156.1,976c-85.5,0-155.1,69.6-155.1,155.1c0,85.5,69.6,155.1,155.1,155.1   c85.5,0,155.1-69.6,155.1-155.1C1311.2,1045.5,1241.6,976,1156.1,976z"/>
</g>
<g>
	<g>
		<g>
			<path class="st6" d="M1160.2,1208c-4.7,6.3-11.9,10.2-19.8,10.6c-7.9,0.4-15.5-2.8-20.7-8.6l-47.1-52.3     c-7.5-8.3-6.8-21.1,1.5-28.6c8.3-7.5,21.1-6.8,28.6,1.5l33.4,37c0.5,0.5,1.2,0.8,1.9,0.8c0.7,0,1.4-0.4,1.9-1l68.6-93     c6.6-9,19.3-10.9,28.3-4.3c9,6.6,10.9,19.3,4.3,28.3L1160.2,1208z"/>
		</g>
	</g>
</g>
</svg>