<?xml version="1.0" encoding="UTF-8"?>
<!-- Generator: Adobe Illustrator 21.1.0, SVG Export Plug-In . SVG Version: 6.00 Build 0)  -->
<svg version="1.1" id="Layer_1" xmlns="http://www.w3.org/2000/svg" xmlns:xlink="http://www.w3.org/1999/xlink" x="0px" y="0px" viewBox="0 0 1773.2 1557.2" style="enable-background:new 0 0 1773.2 1557.2;" xml:space="preserve">
<style type="text/css">
	.st0{fill:#EBF4FD;}
	.st1{fill:#FFFFFF;}
	.st2{fill:#A0A0A0;}
	.st3{fill:#F22F2F;}
	.st4{fill:#0D3B6D;}
	.st5{fill:#AFE4FC;}
	.st6{fill:#62AF69;}
</style>
<g>
	<path class="st0" d="M50.6,590.3C78,109.5,619.7-71.5,1026.9,71.8c45.6-1.7,91.2,1.8,135.9,9.7c313.1,55.8,585.5,335.2,552.4,663.9   c-10.4,103.6-46.8,204.7-94.8,291.4c-31.1,49.2-75.2,97.1-119.3,145c-74.9,61.2-162.1,99-254.1,129.8   c-30.7,10.3-61.1,20.3-88.6,32.7c-333.8,318.9-940.1,231.7-1077.1-227C42.5,982.6,56.8,840.1,50,706.2   C47.3,668.3,47.4,629.5,50.6,590.3z"/>
</g>
<g>
	
		<rect x="1209.9" y="64.5" transform="matrix(0.7071 0.7071 -0.7071 0.7071 442.3369 -854.1984)" class="st1" width="84.7" height="84.7"/>
	<path class="st2" d="M1252.3,171.7l-64.9-64.8l64.9-64.8l64.8,64.8L1252.3,171.7z M1197.3,106.8l55,55l55-55l-55-55L1197.3,106.8z"/>
</g>
<g>
	
		<rect x="1499.7" y="833.2" transform="matrix(0.7071 0.7071 -0.7071 0.7071 1065.2369 -831.6907)" class="st1" width="73.6" height="73.6"/>
	<path class="st3" d="M1536.6,927l-57-57l57-57l57,57L1536.6,927z M1489.4,870l47.1,47.1l47.1-47.1l-47.1-47.1L1489.4,870z"/>
</g>
<g>
	<polygon class="st1" points="228.9,952.8 174.1,1048.4 109.4,959.1  "/>
	<path class="st2" d="M174.4,1054.8L102.8,956l132.3-7.1L174.4,1054.8z M116,962.3l57.8,79.7l49-85.4L116,962.3z"/>
</g>
<g>
	<path class="st3" d="M155,220.8v28.7h27.5v12.2H155v29h-12.9v-29h-27.5v-12.2h27.5v-28.7H155z"/>
</g>
<g>
	<path class="st2" d="M1647.6,1082.7v28.7h27.5v12.2h-27.5v29h-12.9v-29h-27.5v-12.2h27.5v-28.7H1647.6z"/>
</g>
<g>
	<g>
		<path class="st4" d="M1088.1,1199.3c-7.5,0-13.7-6-13.9-13.6c-0.2-7.7,5.9-14.1,13.6-14.3c3.2-0.1,80.1-3.4,88.4-83    c2.9-28-2.4-49.9-15.7-65.1c-19.5-22.2-51.1-23.6-51.4-23.6H448.7l-90.5-414.7l159.4-20.6c7.6-1.1,14.6,4.4,15.6,12    c1,7.6-4.4,14.6-12,15.6l-129.2,16.7l79.3,363h638.2c2.1,0,44.2,1.4,72,33c18.7,21.2,26.2,50.3,22.5,86.4    c-8.7,83.4-79.3,107.1-115.4,108C1088.3,1199.3,1088.2,1199.3,1088.1,1199.3z"/>
	</g>
	<g>
		<path class="st4" d="M1113.6,899.7c-1.1,0-2.1-0.1-3.2-0.4c-7.5-1.8-12.1-9.3-10.4-16.8l109.1-464.7l176-82.1    c7-3.3,15.3-0.2,18.5,6.7c3.3,7,0.2,15.3-6.7,18.5l-163.7,76.4l-106,451.6C1125.6,895.4,1119.9,899.7,1113.6,899.7z"/>
	</g>
	<g>
		<path class="st4" d="M1088.1,526c-7.1,0-13.1-5.3-13.8-12.5c-0.8-7.7,4.8-14.5,12.4-15.3l102.7-10.8c7.7-0.7,14.5,4.8,15.3,12.4    c0.8,7.7-4.8,14.5-12.4,15.3l-102.7,10.8C1089.1,526,1088.6,526,1088.1,526z"/>
	</g>
	<g>
		<path class="st4" d="M672.1,908.7H528.6l-31.2-109.2c-2.1-7.4,2.2-15.1,9.6-17.2c7.4-2.1,15.1,2.2,17.2,9.6l25.4,88.9h122.5    c7.7,0,13.9,6.2,13.9,13.9S679.8,908.7,672.1,908.7z"/>
	</g>
	<g>
		<polygon class="st5" points="913.4,894.8 994.7,854.4 936.5,743.1 1028.7,718.1 782.9,506.7 782.9,830.6 846.2,777.4   "/>
		<path class="st4" d="M907.8,913.1l-65.5-114.3L769,860.6V476.3l288.7,248.4L956.9,752l56.8,108.5L907.8,913.1z M850,756l69,120.5    l56.9-28.2l-59.7-114.1l83.6-22.6L796.9,537v263.6L850,756z"/>
	</g>
	<g>
		<path class="st6" d="M994.8,515.2h-89c-7.7,0-13.9-6.2-13.9-13.9c0-7.7,6.2-13.9,13.9-13.9h89c7.7,0,13.9,6.2,13.9,13.9    C1008.7,509,1002.5,515.2,994.8,515.2z"/>
	</g>
	<g>
		<path class="st6" d="M874.9,429.5c-3.5,0-7-1.3-9.7-3.9c-5.5-5.3-5.7-14.2-0.4-19.7l61.8-64c5.4-5.5,14.2-5.7,19.7-0.4    c5.5,5.3,5.7,14.2,0.4,19.7l-61.8,64C882.2,428.1,878.6,429.5,874.9,429.5z"/>
	</g>
	<g>
		<path class="st6" d="M780.5,393.6c0,0-0.1,0-0.2,0c-7.7-0.1-13.9-6.4-13.8-14.1l1-88.9c0.1-7.6,6.3-13.8,13.9-13.8    c0,0,0.1,0,0.2,0c7.7,0.1,13.9,6.4,13.8,14.1l-1,88.9C794.3,387.4,788.1,393.6,780.5,393.6z"/>
	</g>
	<g>
		<path class="st6" d="M694.4,427.9c-3.4,0-6.8-1.2-9.5-3.8l-65-60.7c-5.6-5.3-5.9-14.1-0.7-19.7c5.3-5.6,14.1-5.9,19.7-0.7l65,60.7    c5.6,5.3,5.9,14.1,0.7,19.7C701.9,426.4,698.1,427.9,694.4,427.9z"/>
	</g>
	<g>
		<path class="st6" d="M652.7,521.1c0,0-0.1,0-0.2,0l-88.9-1c-7.7-0.1-13.9-6.4-13.8-14.1c0.1-7.6,6.3-13.8,13.9-13.8    c0,0,0.1,0,0.2,0l88.9,1c7.7,0.1,13.9,6.4,13.8,14.1C666.6,514.9,660.4,521.1,652.7,521.1z"/>
	</g>
	<g>
		<path class="st6" d="M630,665.2c-3.6,0-7.3-1.4-10-4.2c-5.4-5.5-5.2-14.3,0.3-19.7l63.8-62c5.5-5.3,14.3-5.3,19.7,0.3    c5.4,5.5,5.2,14.3-0.3,19.7l-63.8,62C637,663.8,633.5,665.2,630,665.2z"/>
	</g>
	<g>
		<circle class="st5" cx="970.7" cy="1183.2" r="116"/>
		<path class="st4" d="M970.7,1313.2c-71.7,0-130-58.3-130-130c0-71.7,58.3-130,130-130c71.7,0,130,58.3,130,130    C1100.6,1254.9,1042.3,1313.2,970.7,1313.2z M970.7,1081.1c-56.3,0-102.1,45.8-102.1,102.1s45.8,102.1,102.1,102.1    s102.1-45.8,102.1-102.1S1027,1081.1,970.7,1081.1z"/>
	</g>
	<g>
		<circle class="st5" cx="577.8" cy="1183.2" r="116"/>
		<path class="st4" d="M577.8,1313.2c-71.7,0-130-58.3-130-130c0-71.7,58.3-130,130-130c71.7,0,130,58.3,130,130    C707.7,1254.9,649.4,1313.2,577.8,1313.2z M577.8,1081.1c-56.3,0-102.1,45.8-102.1,102.1s45.8,102.1,102.1,102.1    c56.3,0,102.1-45.8,102.1-102.1S634.1,1081.1,577.8,1081.1z"/>
	</g>
	<g>
		<line class="st5" x1="693.8" y1="1183.2" x2="855.3" y2="1183.2"/>
		<rect x="693.8" y="1169.3" class="st4" width="161.5" height="27.9"/>
	</g>
</g>
</svg>