<?xml version="1.0" encoding="UTF-8"?>
<!-- Generator: Adobe Illustrator 21.1.0, SVG Export Plug-In . SVG Version: 6.00 Build 0)  -->
<svg version="1.1" id="Layer_1" xmlns="http://www.w3.org/2000/svg" xmlns:xlink="http://www.w3.org/1999/xlink" x="0px" y="0px" viewBox="0 0 1773.2 1557.2" style="enable-background:new 0 0 1773.2 1557.2;" xml:space="preserve">
<style type="text/css">
	.st0{fill:#EBF4FD;}
	.st1{fill:#FFFFFF;}
	.st2{fill:#A0A0A0;}
	.st3{fill:#F22F2F;}
	.st4{fill:#62AF69;}
	.st5{fill:#AFE4FC;}
	.st6{fill:#0D3B6D;}
</style>
<g>
	<path class="st0" d="M125.1,717.7c28.8-234.8,206-379.8,376.9-466.6c23-23.9,47.6-46.7,74.1-67.1C681.9,102.4,816,59.2,949.1,66.8   c32.3-13.3,66.1-22.1,100.5-26.8c240.7-32.7,514.5,139.3,582.2,433.4c21.3,92.7,23.3,189.9,13,277.8   c-8.7,50.8-27.1,103.9-45.4,156.9c-18.4,36.3-40.7,68.3-65.5,97.6c-7.2,549.2-518.9,558.2-877.9,485   c-105.8-15.9-205.4-47.5-296.6-122.7c-77.3-66.7-124.5-144.2-175.6-233.9c-29.4-56.9-48.8-117.5-58.2-181.6   c-5.5-52.1-7.1-92-8.3-141.6C118,779.1,120.9,748,125.1,717.7z"/>
</g>
<g>
	
		<rect x="1462.7" y="966.9" transform="matrix(-0.9586 -0.2846 0.2846 -0.9586 2654.5349 2396.9807)" class="st1" width="77.4" height="77.4"/>
	<path class="st2" d="M1529.7,1057.7l-80.3-23.8l23.8-80.3l80.3,23.8L1529.7,1057.7z M1457.3,1029.5l68.1,20.2l20.2-68.1l-68.1-20.2   L1457.3,1029.5z"/>
</g>
<g>
	
		<rect x="205.3" y="895" transform="matrix(-0.9586 -0.2846 0.2846 -0.9586 203.7601 1886.8135)" class="st1" width="67.3" height="67.3"/>
	<path class="st3" d="M263.8,974.4l-70.6-20.9l21-70.6l70.6,20.9L263.8,974.4z M201.1,949.1l58.4,17.3l17.3-58.4l-58.4-17.3   L201.1,949.1z"/>
</g>
<g>
	<polygon class="st1" points="1253.3,292.7 1255.6,192.1 1346.5,235.6  "/>
	<path class="st2" d="M1249.9,298.5l2.6-111.5l100.6,48.2L1249.9,298.5z M1258.7,197.1l-2.1,89.9l83.2-51.1L1258.7,197.1z"/>
</g>
<g>
	<path class="st4" d="M709.1,1507.8l-12.5-23l-22.1,12l-5.3-9.8l22.1-12l-12.6-23.3l10.3-5.6l12.6,23.3l22.1-12l5.3,9.8l-22.1,12   l12.5,23L709.1,1507.8z"/>
</g>
<g>
	<path class="st2" d="M1492.5,416.1l-12.5-23l-22.1,12l-5.3-9.8l22.1-12L1462,360l10.3-5.6l12.6,23.3l22.1-12l5.3,9.8l-22.1,12   l12.5,23L1492.5,416.1z"/>
</g>
<g>
	<circle class="st5" cx="927.6" cy="783.5" r="443.5"/>
	<path class="st6" d="M927.6,1233.3c-248.1,0-449.9-201.8-449.9-449.9c0-248.1,201.8-449.9,449.9-449.9s449.9,201.8,449.9,449.9   C1377.4,1031.5,1175.6,1233.3,927.6,1233.3z M927.6,346.3c-241,0-437.1,196.1-437.1,437.1c0,241,196.1,437.1,437.1,437.1   c241,0,437.1-196.1,437.1-437.1C1364.7,542.4,1168.6,346.3,927.6,346.3z"/>
</g>
<g>
	<line class="st5" x1="628.9" y1="455" x2="1212.5" y2="1120.7"/>
	<polygon class="st6" points="1207.7,1124.9 624.1,459.2 633.7,450.8 1217.3,1116.5  "/>
</g>
<g>
	<path class="st1" d="M782,621.6c0,0-35.8-27.9-53.3,0c-17.5,27.9-12.7,57.3-12.7,57.3l4,258.7c0,0,11.1,104.3,71.6,129   c60.5,24.7,138.5,19.9,159.2,13.5c20.7-6.4,66.9-28.7,78.8-40.6c11.9-11.9,89.2-135.3,89.2-135.3l87.6-120.8   c0,0,0.8-41.6-23.9-43.2s-31.8-19.9-91.5,54.9l-23.9,31l-12.7,1.6V591.4c0,0-10.3-64.5-74.8-22.3l-6.4-7.2l-0.8-56.5   c0,0-18.4-34.2-44.6-32.6s-50.1,14.3-49.3,67.7h-12.7c0,0-34.2-27.1-66.9,10.3C798.7,550.8,784.3,566.7,782,621.6z"/>
</g>
<g>
	<path class="st6" d="M783.2,611.8l-16.7-5.5c-4.3-1.4-8.7-2.1-13.2-2.1c-23.2,0-42.1,18.9-42.1,42.1l0.1,278.7   c2.4,34.4,9.6,64,21.4,87.6c10.8,21.6,25.7,38.9,44.5,51.5c37.6,25.3,85.2,28.6,122.5,28.6c72.1,0,136.9-35.7,169.1-93   c4.5-7.3,15.6-24.7,27.6-43.5c10.5-16.5,20.4-31.9,29.2-45.7l16.9-26.4c15.6-24.5,32.3-48.2,49.5-70.5c6.7-8.7,8.8-11.1,9.3-11.6   c6.3-6.9,10.2-15.1,11.4-23.9c1.8-13.5-3.7-26.5-15-35.8c-13.4-11-32.3-14.5-48.2-9c-4.1,1.4-8,3.4-11.4,5.9   c-9.4,6.9-33.4,30.2-54.1,55.9l-22.7,28.2V596c0-12.8-5.3-25.4-14.5-34.5c-8.9-8.7-20.5-13.5-32.6-13.5c-0.3,0-0.6,0-0.9,0   c-5.6,0.1-11,1.2-16.2,3.2l-17.4,6.8v-37.3c0-14.3-5.9-28.3-16.1-38.4c-10.1-10-23.8-15.3-37.2-15c-27.6,0.5-50.7,23.3-51.5,50.9   l-0.6,19.1l-17.4-7.9c-6.1-2.8-12.6-4.2-19.3-4.4c-14.3-0.5-28.3,5.1-38.6,15.1c-10,9.7-15.6,22.5-15.6,36L783.2,611.8z    M784.1,754.2l3.8,2.3l1.4,0.2l4-1.6l2-3.6l0.2-1.1l0.5-174.3c0-10,4.2-19.6,11.7-26.9c7.9-7.7,18.6-12,29.4-11.5   c20.6,0.6,37.3,18.3,37.3,39.5l3.1,177.5l3,1.1c-0.4-0.1,0-0.1,0.5-0.1l4-1.5l2.2-3.8l0.1-1.1l0-229.5c0-21.6,17.5-39.4,39.1-39.8   c10.4-0.1,20.5,3.9,28.1,11.4c7.8,7.7,12.3,18.4,12.3,29.3l0.3,231.5l3.8,4.1l1.6,0.4l4.4-1.2l1.9-2.1l0.7-3.3l0.1-158.8   c2-17.1,16.5-30.2,33.7-30.5c8.7,0,17.8,3.4,24.4,9.9c6.8,6.7,10.7,15.9,10.7,25.4v225.3c0.1,7.4,4.3,12.8,10.8,14.6   c6.3,1.7,12.7-0.9,16-6.7c16.1-28.1,57.6-70.5,70.2-79.8c2.4-1.7,5.1-3.2,8-4.2c11.8-4.1,25.9-1.4,36,6.8   c7.9,6.5,11.7,15.1,10.4,24.2c-0.8,6.3-3.6,12.1-8.1,17c-1.3,1.4-3.6,4.1-10.1,12.5c-17.4,22.6-34.3,46.6-50.2,71.4l-16.7,26.1   c-8.9,13.9-18.8,29.3-29.4,46c-12.2,19.1-23.5,36.9-27.6,43.5c-30.1,53.8-90.7,87.1-158.4,87.1c-35.4,0-80.6-3-115.4-26.4   c-36-24.2-55.7-66.5-60.2-129.1l-0.1-278.1c0-16.2,13.2-29.4,29.4-29.4c16.3,0,29.5,13.2,29.5,29.4l0.6,106.7L784.1,754.2z"/>
</g>
</svg>